<svg width="114" height="114" viewBox="0 0 114 114" fill="none" xmlns="http://www.w3.org/2000/svg">
<rect width="114" height="114" rx="57" fill="black"/>
<path d="M17.44 67.16V52.76L54.48 37.32V48.52L22.48 61.8V58.04L54.48 71.32V82.6L17.44 67.16ZM60.6087 28.2H71.9687V50.84L71.0087 49.64C72.0221 46.6533 73.6221 44.44 75.8088 43C77.9954 41.56 80.5021 40.84 83.3287 40.84C87.4887 40.84 90.6887 42.28 92.9287 45.16C95.1688 47.9867 96.2888 51.96 96.2888 57.08V85H84.9288V59.56C84.9288 56.3067 84.4487 53.9867 83.4887 52.6C82.5821 51.16 81.0888 50.44 79.0087 50.44C76.8754 50.44 75.1688 51.3467 73.8887 53.16C72.6087 54.9733 71.9687 57.48 71.9687 60.68V85H60.6087V28.2Z" fill="white"/>
</svg>
